<svg width="24" height="24" viewBox="0 0 24 24" fill="#0006" xmlns="http://www.w3.org/2000/svg">
<path d="M5.74994 3C4.24005 3 2.99994 4.24011 2.99994 5.75V10.5H2.24994C2.15056 10.4986 2.05188 10.517 1.95966 10.554C1.86743 10.5911 1.78349 10.6461 1.71271 10.7159C1.64194 10.7857 1.58573 10.8688 1.54737 10.9605C1.50901 11.0522 1.48926 11.1506 1.48926 11.25C1.48926 11.3494 1.50901 11.4478 1.54737 11.5395C1.58573 11.6312 1.64194 11.7143 1.71271 11.7841C1.78349 11.8539 1.86743 11.9089 1.95966 11.946C2.05188 11.983 2.15056 12.0014 2.24994 12H21.7499C21.8493 12.0014 21.948 11.983 22.0402 11.946C22.1324 11.9089 22.2164 11.8539 22.2872 11.7841C22.3579 11.7143 22.4141 11.6312 22.4525 11.5395C22.4909 11.4478 22.5106 11.3494 22.5106 11.25C22.5106 11.1506 22.4909 11.0522 22.4525 10.9605C22.4141 10.8688 22.3579 10.7857 22.2872 10.7159C22.2164 10.6461 22.1324 10.5911 22.0402 10.554C21.948 10.517 21.8493 10.4986 21.7499 10.5H20.9999V5.75C20.9999 4.24011 19.7598 3 18.2499 3H5.74994ZM5.74994 4.5H18.2499C18.9491 4.5 19.4999 5.05089 19.4999 5.75V10.5H4.49994V5.75C4.49994 5.05089 5.05083 4.5 5.74994 4.5ZM2.99994 13V18.25C2.99994 19.7599 4.24005 21 5.74994 21H18.2499C19.7598 21 20.9999 19.7599 20.9999 18.25V13H19.4999V13.543C19.4196 13.5146 19.3351 13.5 19.2499 13.5C19.051 13.5 18.8603 13.579 18.7196 13.7197C18.579 13.8603 18.4999 14.0511 18.4999 14.25C18.4999 14.4489 18.579 14.6397 18.7196 14.7803C18.8603 14.921 19.051 15 19.2499 15C19.3352 14.9997 19.4197 14.9848 19.4999 14.9561V18.25C19.4999 18.3476 19.4861 18.4415 19.4658 18.5322C19.3958 18.511 19.3231 18.5002 19.2499 18.5C19.133 18.5001 19.0178 18.5275 18.9133 18.58C18.8089 18.6326 18.7182 18.7088 18.6485 18.8026C18.5787 18.8965 18.5319 19.0053 18.5117 19.1204C18.4915 19.2356 18.4985 19.3539 18.5322 19.4658C18.4414 19.4862 18.3475 19.5 18.2499 19.5H15.956C15.996 19.387 16.0082 19.266 15.9918 19.1472C15.9754 19.0285 15.9307 18.9154 15.8616 18.8174C15.7924 18.7195 15.7008 18.6395 15.5944 18.5843C15.4879 18.5291 15.3698 18.5002 15.2499 18.5C15.13 18.5 15.0117 18.5288 14.9052 18.584C14.7986 18.6391 14.7069 18.7191 14.6376 18.817C14.5684 18.915 14.5236 19.0281 14.5071 19.147C14.4906 19.2658 14.5029 19.3869 14.5429 19.5H11.956C11.996 19.387 12.0082 19.266 11.9918 19.1472C11.9754 19.0285 11.9307 18.9154 11.8616 18.8174C11.7924 18.7195 11.7008 18.6395 11.5944 18.5843C11.4879 18.5291 11.3698 18.5002 11.2499 18.5C11.13 18.5 11.0117 18.5288 10.9052 18.584C10.7986 18.6391 10.7069 18.7191 10.6376 18.817C10.5684 18.915 10.5236 19.0281 10.5071 19.147C10.4906 19.2658 10.5029 19.3869 10.5429 19.5H7.95599C7.99596 19.387 8.00824 19.266 7.99181 19.1472C7.97538 19.0285 7.93072 18.9154 7.86156 18.8174C7.79241 18.7195 7.70078 18.6395 7.59436 18.5843C7.48795 18.5291 7.36984 18.5002 7.24994 18.5C7.12996 18.5 7.01174 18.5288 6.90519 18.584C6.79864 18.6391 6.70689 18.7191 6.63762 18.817C6.56836 18.915 6.52361 19.0281 6.50712 19.147C6.49064 19.2658 6.50292 19.3869 6.54291 19.5H5.74994C5.05083 19.5 4.49994 18.9491 4.49994 18.25V16.7715V13H2.99994ZM4.49994 16.7715C4.50553 16.9667 4.58701 17.1519 4.72706 17.288C4.86711 17.424 5.05469 17.5001 5.24994 17.5C5.44885 17.5 5.63962 17.421 5.78027 17.2803C5.92092 17.1397 5.99994 16.9489 5.99994 16.75C5.99994 16.5511 5.92092 16.3603 5.78027 16.2197C5.63962 16.079 5.44885 16 5.24994 16C5.14961 16 5.0503 16.02 4.95788 16.0591C4.86545 16.0981 4.7818 16.1553 4.71187 16.2272C4.64193 16.2991 4.58715 16.3844 4.55074 16.4779C4.51434 16.5714 4.49707 16.6712 4.49994 16.7715ZM7.24994 13.5C7.05103 13.5 6.86026 13.579 6.71961 13.7197C6.57896 13.8603 6.49994 14.0511 6.49994 14.25C6.49994 14.4489 6.57896 14.6397 6.71961 14.7803C6.86026 14.921 7.05103 15 7.24994 15C7.44885 15 7.63962 14.921 7.78027 14.7803C7.92092 14.6397 7.99994 14.4489 7.99994 14.25C7.99994 14.0511 7.92092 13.8603 7.78027 13.7197C7.63962 13.579 7.44885 13.5 7.24994 13.5ZM11.2499 13.5C11.051 13.5 10.8603 13.579 10.7196 13.7197C10.579 13.8603 10.4999 14.0511 10.4999 14.25C10.4999 14.4489 10.579 14.6397 10.7196 14.7803C10.8603 14.921 11.051 15 11.2499 15C11.4489 15 11.6396 14.921 11.7803 14.7803C11.9209 14.6397 11.9999 14.4489 11.9999 14.25C11.9999 14.0511 11.9209 13.8603 11.7803 13.7197C11.6396 13.579 11.4489 13.5 11.2499 13.5ZM15.2499 13.5C15.051 13.5 14.8603 13.579 14.7196 13.7197C14.579 13.8603 14.4999 14.0511 14.4999 14.25C14.4999 14.4489 14.579 14.6397 14.7196 14.7803C14.8603 14.921 15.051 15 15.2499 15C15.4489 15 15.6396 14.921 15.7803 14.7803C15.9209 14.6397 15.9999 14.4489 15.9999 14.25C15.9999 14.0511 15.9209 13.8603 15.7803 13.7197C15.6396 13.579 15.4489 13.5 15.2499 13.5ZM9.24994 16C9.05103 16 8.86026 16.079 8.71961 16.2197C8.57896 16.3603 8.49994 16.5511 8.49994 16.75C8.49994 16.9489 8.57896 17.1397 8.71961 17.2803C8.86026 17.421 9.05103 17.5 9.24994 17.5C9.44885 17.5 9.63962 17.421 9.78027 17.2803C9.92092 17.1397 9.99994 16.9489 9.99994 16.75C9.99994 16.5511 9.92092 16.3603 9.78027 16.2197C9.63962 16.079 9.44885 16 9.24994 16ZM13.2499 16C13.051 16 12.8603 16.079 12.7196 16.2197C12.579 16.3603 12.4999 16.5511 12.4999 16.75C12.4999 16.9489 12.579 17.1397 12.7196 17.2803C12.8603 17.421 13.051 17.5 13.2499 17.5C13.4489 17.5 13.6396 17.421 13.7803 17.2803C13.9209 17.1397 13.9999 16.9489 13.9999 16.75C13.9999 16.5511 13.9209 16.3603 13.7803 16.2197C13.6396 16.079 13.4489 16 13.2499 16ZM17.2499 16C17.051 16 16.8603 16.079 16.7196 16.2197C16.579 16.3603 16.4999 16.5511 16.4999 16.75C16.4999 16.9489 16.579 17.1397 16.7196 17.2803C16.8603 17.421 17.051 17.5 17.2499 17.5C17.4489 17.5 17.6396 17.421 17.7803 17.2803C17.9209 17.1397 17.9999 16.9489 17.9999 16.75C17.9999 16.5511 17.9209 16.3603 17.7803 16.2197C17.6396 16.079 17.4489 16 17.2499 16Z" fill="#0006" />
</svg>
