<svg width="24" height="24" viewBox="0 0 24 24" fill="none" xmlns="http://www.w3.org/2000/svg">
<path d="M3.75 12C3.75 7.44365 7.44365 3.75 12 3.75C16.5564 3.75 20.25 7.44365 20.25 12C20.25 12.232 20.2404 12.4615 20.2217 12.6883C20.1877 13.1011 20.4947 13.4634 20.9075 13.4975C21.3203 13.5315 21.6826 13.2245 21.7167 12.8117C21.7387 12.5439 21.75 12.2732 21.75 12C21.75 6.61522 17.3848 2.25 12 2.25C6.61522 2.25 2.25 6.61522 2.25 12C2.25 17.3848 6.61522 21.75 12 21.75C12.3491 21.75 12.6941 21.7316 13.0342 21.6957C13.4461 21.6523 13.7448 21.2831 13.7013 20.8712C13.6578 20.4593 13.2887 20.1606 12.8767 20.204C12.5889 20.2344 12.2964 20.25 12 20.25C7.44365 20.25 3.75 16.5564 3.75 12Z" fill="#0006"/>
<path d="M17.9617 14.2168C18.1001 14.0742 18.2895 13.9923 18.4882 13.9892C18.5886 13.9877 18.6883 14.0063 18.7813 14.0439C18.8744 14.0816 18.959 14.1375 19.03 14.2085C19.101 14.2794 19.1571 14.3639 19.1949 14.4569C19.2327 14.5499 19.2514 14.6496 19.2499 14.75V17.75H22.2499C22.3493 17.7486 22.448 17.7669 22.5402 17.804C22.6324 17.841 22.7164 17.8961 22.7872 17.9659C22.8579 18.0356 22.9141 18.1188 22.9525 18.2105C22.9909 18.3022 23.0106 18.4006 23.0106 18.5C23.0106 18.5994 22.9909 18.6978 22.9525 18.7895C22.9141 18.8812 22.8579 18.9643 22.7872 19.0341C22.7164 19.1039 22.6324 19.1589 22.5402 19.196C22.448 19.233 22.3493 19.2514 22.2499 19.25H19.2499V22.25C19.2513 22.3494 19.233 22.448 19.1959 22.5403C19.1589 22.6325 19.1038 22.7164 19.0341 22.7872C18.9643 22.858 18.8811 22.9142 18.7894 22.9525C18.6977 22.9909 18.5993 23.0107 18.4999 23.0107C18.4005 23.0107 18.3021 22.9909 18.2104 22.9525C18.1188 22.9142 18.0356 22.858 17.9658 22.7872C17.896 22.7164 17.841 22.6325 17.804 22.5403C17.7669 22.448 17.7485 22.3494 17.7499 22.25V19.25H14.7499C14.6506 19.2514 14.5519 19.233 14.4597 19.196C14.3674 19.1589 14.2835 19.1039 14.2127 19.0341C14.1419 18.9643 14.0857 18.8812 14.0474 18.7895C14.009 18.6978 13.9893 18.5994 13.9893 18.5C13.9893 18.4006 14.009 18.3022 14.0474 18.2105C14.0857 18.1188 14.1419 18.0356 14.2127 17.9659C14.2835 17.8961 14.3674 17.841 14.4597 17.804C14.5519 17.7669 14.6506 17.7486 14.7499 17.75H17.7499V14.75C17.7471 14.5512 17.8232 14.3595 17.9617 14.2168Z" fill="#0006" />
</svg>
