<svg width="24" height="24" viewBox="0 0 24 24" fill="none" xmlns="http://www.w3.org/2000/svg">
<path d="M4.23822 2.48935C4.03948 2.49245 3.8501 2.57432 3.71167 2.71696C3.57324 2.85959 3.49709 3.05135 3.49994 3.25009V3.50009H3.24994C3.15056 3.49869 3.05188 3.51705 2.95966 3.55411C2.86743 3.59117 2.78349 3.64619 2.71271 3.71597C2.64194 3.78575 2.58573 3.86891 2.54737 3.9606C2.50901 4.05229 2.48926 4.1507 2.48926 4.25009C2.48926 4.34949 2.50901 4.44789 2.54737 4.53958C2.58573 4.63127 2.64194 4.71443 2.71271 4.78421C2.78349 4.854 2.86743 4.90902 2.95966 4.94608C3.05188 4.98314 3.15056 5.0015 3.24994 5.00009H3.49994V6.25009C3.49853 6.34948 3.5169 6.44815 3.55396 6.54037C3.59102 6.6326 3.64604 6.71654 3.71582 6.78732C3.7856 6.8581 3.86876 6.9143 3.96045 6.95266C4.05214 6.99102 4.15055 7.01077 4.24994 7.01077C4.34933 7.01077 4.44774 6.99102 4.53943 6.95266C4.63112 6.9143 4.71428 6.8581 4.78406 6.78732C4.85384 6.71654 4.90886 6.6326 4.94592 6.54037C4.98298 6.44815 5.00135 6.34948 4.99994 6.25009V5.00009H6.24994C6.34932 5.0015 6.448 4.98314 6.54022 4.94608C6.63245 4.90902 6.71639 4.854 6.78717 4.78421C6.85794 4.71443 6.91415 4.63127 6.95251 4.53958C6.99087 4.44789 7.01062 4.34949 7.01062 4.25009C7.01062 4.1507 6.99087 4.05229 6.95251 3.9606C6.91415 3.86891 6.85794 3.78575 6.78717 3.71597C6.71639 3.64619 6.63245 3.59117 6.54022 3.55411C6.448 3.51705 6.34932 3.49869 6.24994 3.50009H4.99994V3.25009C5.00138 3.14971 4.98265 3.05006 4.94487 2.95705C4.90709 2.86403 4.85102 2.77955 4.77998 2.70861C4.70895 2.63767 4.6244 2.5817 4.53134 2.54404C4.43828 2.50638 4.3386 2.48778 4.23822 2.48935ZM19.7382 2.48935C19.5395 2.49245 19.3501 2.57432 19.2117 2.71696C19.0732 2.85959 18.9971 3.05135 18.9999 3.25009V3.50009H17.7499C17.6506 3.49869 17.5519 3.51705 17.4597 3.55411C17.3674 3.59117 17.2835 3.64619 17.2127 3.71597C17.1419 3.78575 17.0857 3.86891 17.0474 3.9606C17.009 4.05229 16.9893 4.1507 16.9893 4.25009C16.9893 4.34949 17.009 4.44789 17.0474 4.53958C17.0857 4.63127 17.1419 4.71443 17.2127 4.78421C17.2835 4.854 17.3674 4.90902 17.4597 4.94608C17.5519 4.98314 17.6506 5.0015 17.7499 5.00009H18.9999V6.25009C18.9985 6.34948 19.0169 6.44815 19.054 6.54037C19.091 6.6326 19.146 6.71654 19.2158 6.78732C19.2856 6.8581 19.3688 6.9143 19.4604 6.95266C19.5521 6.99102 19.6505 7.01077 19.7499 7.01077C19.8493 7.01077 19.9477 6.99102 20.0394 6.95266C20.1311 6.9143 20.2143 6.8581 20.2841 6.78732C20.3538 6.71654 20.4089 6.6326 20.4459 6.54037C20.483 6.44815 20.5013 6.34948 20.4999 6.25009V5.00009H20.7499C20.8493 5.0015 20.948 4.98314 21.0402 4.94608C21.1324 4.90902 21.2164 4.854 21.2872 4.78421C21.3579 4.71443 21.4141 4.63127 21.4525 4.53958C21.4909 4.44789 21.5106 4.34949 21.5106 4.25009C21.5106 4.1507 21.4909 4.05229 21.4525 3.9606C21.4141 3.86891 21.3579 3.78575 21.2872 3.71597C21.2164 3.64619 21.1324 3.59117 21.0402 3.55411C20.948 3.51705 20.8493 3.49869 20.7499 3.50009H20.4999V3.25009C20.5014 3.14971 20.4827 3.05006 20.4449 2.95705C20.4071 2.86403 20.351 2.77955 20.28 2.70861C20.209 2.63767 20.1244 2.5817 20.0313 2.54404C19.9383 2.50638 19.8386 2.48778 19.7382 2.48935ZM9.24994 3.50009C9.15056 3.49869 9.05188 3.51705 8.95966 3.55411C8.86743 3.59117 8.78349 3.64619 8.71271 3.71597C8.64194 3.78575 8.58573 3.86891 8.54737 3.9606C8.50901 4.05229 8.48926 4.1507 8.48926 4.25009C8.48926 4.34949 8.50901 4.44789 8.54737 4.53958C8.58573 4.63127 8.64194 4.71443 8.71271 4.78421C8.78349 4.854 8.86743 4.90902 8.95966 4.94608C9.05188 4.98314 9.15056 5.0015 9.24994 5.00009H10.2499C10.3493 5.0015 10.448 4.98314 10.5402 4.94608C10.6324 4.90902 10.7164 4.854 10.7872 4.78421C10.8579 4.71443 10.9141 4.63127 10.9525 4.53958C10.9909 4.44789 11.0106 4.34949 11.0106 4.25009C11.0106 4.1507 10.9909 4.05229 10.9525 3.9606C10.9141 3.86891 10.8579 3.78575 10.7872 3.71597C10.7164 3.64619 10.6324 3.59117 10.5402 3.55411C10.448 3.51705 10.3493 3.49869 10.2499 3.50009H9.24994ZM13.7499 3.50009C13.6506 3.49869 13.5519 3.51705 13.4597 3.55411C13.3674 3.59117 13.2835 3.64619 13.2127 3.71597C13.1419 3.78575 13.0857 3.86891 13.0474 3.9606C13.009 4.05229 12.9893 4.1507 12.9893 4.25009C12.9893 4.34949 13.009 4.44789 13.0474 4.53958C13.0857 4.63127 13.1419 4.71443 13.2127 4.78421C13.2835 4.854 13.3674 4.90902 13.4597 4.94608C13.5519 4.98314 13.6506 5.0015 13.7499 5.00009H14.7499C14.8493 5.0015 14.948 4.98314 15.0402 4.94608C15.1324 4.90902 15.2164 4.854 15.2872 4.78421C15.3579 4.71443 15.4141 4.63127 15.4525 4.53958C15.4909 4.44789 15.5106 4.34949 15.5106 4.25009C15.5106 4.1507 15.4909 4.05229 15.4525 3.9606C15.4141 3.86891 15.3579 3.78575 15.2872 3.71597C15.2164 3.64619 15.1324 3.59117 15.0402 3.55411C14.948 3.51705 14.8493 3.49869 14.7499 3.50009H13.7499ZM4.23822 8.48935C4.03948 8.49245 3.8501 8.57432 3.71167 8.71696C3.57324 8.85959 3.49709 9.05135 3.49994 9.25009V10.2501C3.49853 10.3495 3.5169 10.4481 3.55396 10.5404C3.59102 10.6326 3.64604 10.7165 3.71582 10.7873C3.7856 10.8581 3.86876 10.9143 3.96045 10.9527C4.05214 10.991 4.15055 11.0108 4.24994 11.0108C4.34933 11.0108 4.44774 10.991 4.53943 10.9527C4.63112 10.9143 4.71428 10.8581 4.78406 10.7873C4.85384 10.7165 4.90886 10.6326 4.94592 10.5404C4.98298 10.4481 5.00135 10.3495 4.99994 10.2501V9.25009C5.00138 9.14971 4.98265 9.05006 4.94487 8.95705C4.90709 8.86403 4.85102 8.77955 4.77998 8.70861C4.70895 8.63767 4.6244 8.58171 4.53134 8.54404C4.43828 8.50638 4.3386 8.48778 4.23822 8.48935ZM19.7382 8.48935C19.5395 8.49245 19.3501 8.57432 19.2117 8.71696C19.0732 8.8596 18.9971 9.05135 18.9999 9.25009V10.2501C18.9985 10.3495 19.0169 10.4481 19.054 10.5404C19.091 10.6326 19.146 10.7165 19.2158 10.7873C19.2856 10.8581 19.3688 10.9143 19.4604 10.9527C19.5521 10.991 19.6505 11.0108 19.7499 11.0108C19.8493 11.0108 19.9477 10.991 20.0394 10.9527C20.1311 10.9143 20.2143 10.8581 20.2841 10.7873C20.3538 10.7165 20.4089 10.6326 20.4459 10.5404C20.483 10.4481 20.5013 10.3495 20.4999 10.2501V9.25009C20.5014 9.14971 20.4827 9.05006 20.4449 8.95705C20.4071 8.86403 20.351 8.77955 20.28 8.70861C20.209 8.63767 20.1244 8.58171 20.0313 8.54404C19.9383 8.50638 19.8386 8.48778 19.7382 8.48935ZM4.23822 12.9893C4.03948 12.9925 3.8501 13.0743 3.71167 13.217C3.57324 13.3596 3.49709 13.5513 3.49994 13.7501V14.7501C3.49853 14.8495 3.5169 14.9481 3.55396 15.0404C3.59102 15.1326 3.64604 15.2165 3.71582 15.2873C3.7856 15.3581 3.86876 15.4143 3.96045 15.4527C4.05214 15.491 4.15055 15.5108 4.24994 15.5108C4.34933 15.5108 4.44774 15.491 4.53943 15.4527C4.63112 15.4143 4.71428 15.3581 4.78406 15.2873C4.85384 15.2165 4.90886 15.1326 4.94592 15.0404C4.98298 14.9481 5.00135 14.8495 4.99994 14.7501V13.7501C5.00138 13.6497 4.98265 13.5501 4.94487 13.457C4.90709 13.364 4.85102 13.2796 4.77998 13.2086C4.70895 13.1377 4.6244 13.0817 4.53134 13.044C4.43828 13.0064 4.3386 12.9878 4.23822 12.9893ZM19.7382 12.9893C19.5395 12.9925 19.3501 13.0743 19.2117 13.217C19.0732 13.3596 18.9971 13.5513 18.9999 13.7501V14.7501C18.9985 14.8495 19.0169 14.9481 19.054 15.0404C19.091 15.1326 19.146 15.2165 19.2158 15.2873C19.2856 15.3581 19.3688 15.4143 19.4604 15.4527C19.5521 15.491 19.6505 15.5108 19.7499 15.5108C19.8493 15.5108 19.9477 15.491 20.0394 15.4527C20.1311 15.4143 20.2143 15.3581 20.2841 15.2873C20.3538 15.2165 20.4089 15.1326 20.4459 15.0404C20.483 14.9481 20.5013 14.8495 20.4999 14.7501V13.7501C20.5014 13.6497 20.4827 13.5501 20.4449 13.457C20.4071 13.364 20.351 13.2796 20.28 13.2086C20.209 13.1377 20.1244 13.0817 20.0313 13.044C19.9383 13.0064 19.8386 12.9878 19.7382 12.9893ZM4.23822 16.9893C4.03948 16.9925 3.8501 17.0743 3.71167 17.217C3.57324 17.3596 3.49709 17.5513 3.49994 17.7501V19.0001H3.24994C3.15056 18.9987 3.05188 19.017 2.95966 19.0541C2.86743 19.0912 2.78349 19.1462 2.71271 19.216C2.64194 19.2858 2.58573 19.3689 2.54737 19.4606C2.50901 19.5523 2.48926 19.6507 2.48926 19.7501C2.48926 19.8495 2.50901 19.9479 2.54737 20.0396C2.58573 20.1313 2.64194 20.2144 2.71271 20.2842C2.78349 20.354 2.86743 20.409 2.95966 20.4461C3.05188 20.4831 3.15056 20.5015 3.24994 20.5001H3.49994V20.7501C3.49853 20.8495 3.5169 20.9481 3.55396 21.0404C3.59102 21.1326 3.64604 21.2165 3.71582 21.2873C3.7856 21.3581 3.86876 21.4143 3.96045 21.4527C4.05214 21.491 4.15055 21.5108 4.24994 21.5108C4.34933 21.5108 4.44774 21.491 4.53943 21.4527C4.63112 21.4143 4.71428 21.3581 4.78406 21.2873C4.85384 21.2165 4.90886 21.1326 4.94592 21.0404C4.98298 20.9481 5.00135 20.8495 4.99994 20.7501V20.5001H6.24994C6.34932 20.5015 6.448 20.4831 6.54022 20.4461C6.63245 20.409 6.71639 20.354 6.78717 20.2842C6.85794 20.2144 6.91415 20.1313 6.95251 20.0396C6.99087 19.9479 7.01062 19.8495 7.01062 19.7501C7.01062 19.6507 6.99087 19.5523 6.95251 19.4606C6.91415 19.3689 6.85794 19.2858 6.78717 19.216C6.71639 19.1462 6.63245 19.0912 6.54022 19.0541C6.448 19.017 6.34932 18.9987 6.24994 19.0001H4.99994V17.7501C5.00138 17.6497 4.98265 17.5501 4.94487 17.457C4.90709 17.364 4.85102 17.2796 4.77998 17.2086C4.70895 17.1377 4.6244 17.0817 4.53134 17.044C4.43828 17.0064 4.3386 16.9878 4.23822 16.9893ZM19.7382 16.9893C19.5395 16.9925 19.3501 17.0743 19.2117 17.217C19.0732 17.3596 18.9971 17.5513 18.9999 17.7501V19.0001H17.7499C17.6506 18.9987 17.5519 19.017 17.4597 19.0541C17.3674 19.0912 17.2835 19.1462 17.2127 19.216C17.1419 19.2858 17.0857 19.3689 17.0474 19.4606C17.009 19.5523 16.9893 19.6507 16.9893 19.7501C16.9893 19.8495 17.009 19.9479 17.0474 20.0396C17.0857 20.1313 17.1419 20.2144 17.2127 20.2842C17.2835 20.354 17.3674 20.409 17.4597 20.4461C17.5519 20.4831 17.6506 20.5015 17.7499 20.5001H18.9999V20.7501C18.9985 20.8495 19.0169 20.9481 19.054 21.0404C19.091 21.1326 19.146 21.2165 19.2158 21.2873C19.2856 21.3581 19.3688 21.4143 19.4604 21.4527C19.5521 21.491 19.6505 21.5108 19.7499 21.5108C19.8493 21.5108 19.9477 21.491 20.0394 21.4527C20.1311 21.4143 20.2143 21.3581 20.2841 21.2873C20.3538 21.2165 20.4089 21.1326 20.4459 21.0404C20.483 20.9481 20.5013 20.8495 20.4999 20.7501V20.5001H20.7499C20.8493 20.5015 20.948 20.4831 21.0402 20.4461C21.1324 20.409 21.2164 20.354 21.2872 20.2842C21.3579 20.2144 21.4141 20.1313 21.4525 20.0396C21.4909 19.9479 21.5106 19.8495 21.5106 19.7501C21.5106 19.6507 21.4909 19.5523 21.4525 19.4606C21.4141 19.3689 21.3579 19.2858 21.2872 19.216C21.2164 19.1462 21.1324 19.0912 21.0402 19.0541C20.948 19.017 20.8493 18.9987 20.7499 19.0001H20.4999V17.7501C20.5014 17.6497 20.4827 17.5501 20.4449 17.457C20.4071 17.364 20.351 17.2796 20.28 17.2086C20.209 17.1377 20.1244 17.0817 20.0313 17.044C19.9383 17.0064 19.8386 16.9878 19.7382 16.9893ZM9.24994 19.0001C9.15056 18.9987 9.05188 19.017 8.95966 19.0541C8.86743 19.0912 8.78349 19.1462 8.71271 19.216C8.64194 19.2858 8.58573 19.3689 8.54737 19.4606C8.50901 19.5523 8.48926 19.6507 8.48926 19.7501C8.48926 19.8495 8.50901 19.9479 8.54737 20.0396C8.58573 20.1313 8.64194 20.2144 8.71271 20.2842C8.78349 20.354 8.86743 20.409 8.95966 20.4461C9.05188 20.4831 9.15056 20.5015 9.24994 20.5001H10.2499C10.3493 20.5015 10.448 20.4831 10.5402 20.4461C10.6324 20.409 10.7164 20.354 10.7872 20.2842C10.8579 20.2144 10.9141 20.1313 10.9525 20.0396C10.9909 19.9479 11.0106 19.8495 11.0106 19.7501C11.0106 19.6507 10.9909 19.5523 10.9525 19.4606C10.9141 19.3689 10.8579 19.2858 10.7872 19.216C10.7164 19.1462 10.6324 19.0912 10.5402 19.0541C10.448 19.017 10.3493 18.9987 10.2499 19.0001H9.24994ZM13.7499 19.0001C13.6506 18.9987 13.5519 19.017 13.4597 19.0541C13.3674 19.0912 13.2835 19.1462 13.2127 19.216C13.1419 19.2858 13.0857 19.3689 13.0474 19.4606C13.009 19.5523 12.9893 19.6507 12.9893 19.7501C12.9893 19.8495 13.009 19.9479 13.0474 20.0396C13.0857 20.1313 13.1419 20.2144 13.2127 20.2842C13.2835 20.354 13.3674 20.409 13.4597 20.4461C13.5519 20.4831 13.6506 20.5015 13.7499 20.5001H14.7499C14.8493 20.5015 14.948 20.4831 15.0402 20.4461C15.1324 20.409 15.2164 20.354 15.2872 20.2842C15.3579 20.2144 15.4141 20.1313 15.4525 20.0396C15.4909 19.9479 15.5106 19.8495 15.5106 19.7501C15.5106 19.6507 15.4909 19.5523 15.4525 19.4606C15.4141 19.3689 15.3579 19.2858 15.2872 19.216C15.2164 19.1462 15.1324 19.0912 15.0402 19.0541C14.948 19.017 14.8493 18.9987 14.7499 19.0001H13.7499Z" fill="#0006" />
</svg>
