<svg width="24" height="24" viewBox="0 0 24 24" fill="none" xmlns="http://www.w3.org/2000/svg">
<path fill-rule="evenodd" clip-rule="evenodd" d="M12 7.25C9.37665 7.25 7.25 9.37665 7.25 12C7.25 14.6234 9.37665 16.75 12 16.75C14.6234 16.75 16.75 14.6234 16.75 12C16.75 9.37665 14.6234 7.25 12 7.25ZM8.75 12C8.75 10.2051 10.2051 8.75 12 8.75C13.7949 8.75 15.25 10.2051 15.25 12C15.25 13.7949 13.7949 15.25 12 15.25C10.2051 15.25 8.75 13.7949 8.75 12Z" fill="#0006" />
<path fill-rule="evenodd" clip-rule="evenodd" d="M5 2.25C3.48122 2.25 2.25 3.48122 2.25 5V19C2.25 20.5188 3.48122 21.75 5 21.75H19C20.5188 21.75 21.75 20.5188 21.75 19V5C21.75 3.48122 20.5188 2.25 19 2.25H5ZM3.75 5C3.75 4.30964 4.30964 3.75 5 3.75H19C19.6904 3.75 20.25 4.30964 20.25 5V19C20.25 19.6904 19.6904 20.25 19 20.25H5C4.30964 20.25 3.75 19.6904 3.75 19V5Z" fill="#0006" />
</svg>
