<svg width="24" height="24" viewBox="0 0 24 24" fill="none" xmlns="http://www.w3.org/2000/svg">
<path d="M11.9883 1.98933C11.8742 1.9912 11.762 2.01909 11.6603 2.07088C11.5586 2.12266 11.47 2.19698 11.4014 2.28816L8.96976 4.7198C8.89778 4.78891 8.84032 4.87168 8.80073 4.96328C8.76114 5.05487 8.74023 5.15345 8.73921 5.25323C8.7382 5.35301 8.7571 5.45199 8.79482 5.54437C8.83254 5.63675 8.88831 5.72068 8.95887 5.79124C9.02942 5.86179 9.11335 5.91757 9.20573 5.95528C9.29812 5.993 9.3971 6.0119 9.49687 6.01089C9.59665 6.00987 9.69523 5.98896 9.78682 5.94937C9.87842 5.90979 9.9612 5.85232 10.0303 5.78034L11.25 4.56062V9.25007C11.2486 9.34945 11.267 9.44813 11.304 9.54035C11.3411 9.63258 11.3961 9.71652 11.4659 9.7873C11.5357 9.85807 11.6188 9.91428 11.7105 9.95264C11.8022 9.991 11.9006 10.0108 12 10.0108C12.0994 10.0108 12.1978 9.991 12.2895 9.95264C12.3812 9.91428 12.4644 9.85807 12.5342 9.7873C12.6039 9.71652 12.659 9.63258 12.696 9.54035C12.7331 9.44813 12.7514 9.34945 12.75 9.25007V4.56062L13.9698 5.78034C14.0389 5.85232 14.1216 5.90979 14.2132 5.94937C14.3048 5.98896 14.4034 6.00987 14.5032 6.01089C14.603 6.0119 14.7019 5.993 14.7943 5.95528C14.8867 5.91757 14.9706 5.86179 15.0412 5.79124C15.1118 5.72068 15.1675 5.63675 15.2052 5.54437C15.243 5.45199 15.2619 5.35301 15.2609 5.25323C15.2598 5.15345 15.2389 5.05487 15.1993 4.96328C15.1597 4.87168 15.1023 4.78891 15.0303 4.7198L12.5948 2.28425C12.5237 2.19116 12.4319 2.11601 12.3265 2.06479C12.2212 2.01358 12.1054 1.98774 11.9883 1.98933ZM18.7422 8.74226C18.593 8.74229 18.4471 8.78686 18.3233 8.87026C18.1995 8.95365 18.1034 9.07209 18.0473 9.2104C17.9912 9.34872 17.9777 9.50063 18.0084 9.64669C18.0391 9.79276 18.1127 9.92634 18.2198 10.0303L19.4395 11.2501H14.75C14.6506 11.2487 14.552 11.267 14.4598 11.3041C14.3675 11.3411 14.2836 11.3962 14.2128 11.466C14.142 11.5357 14.0858 11.6189 14.0475 11.7106C14.0091 11.8023 13.9894 11.9007 13.9894 12.0001C13.9894 12.0995 14.0091 12.1979 14.0475 12.2896C14.0858 12.3813 14.142 12.4644 14.2128 12.5342C14.2836 12.604 14.3675 12.659 14.4598 12.6961C14.552 12.7331 14.6506 12.7515 14.75 12.7501H19.4395L18.2198 13.9698C18.1478 14.0389 18.0903 14.1217 18.0507 14.2133C18.0111 14.3049 17.9902 14.4034 17.9892 14.5032C17.9882 14.603 18.0071 14.702 18.0448 14.7944C18.0825 14.8867 18.1383 14.9707 18.2089 15.0412C18.2794 15.1118 18.3634 15.1676 18.4557 15.2053C18.5481 15.243 18.6471 15.2619 18.7469 15.2609C18.8467 15.2599 18.9452 15.239 19.0368 15.1994C19.1284 15.1598 19.2112 15.1023 19.2803 15.0303L21.7159 12.5948C21.8075 12.5245 21.8817 12.434 21.9326 12.3303C21.9835 12.2267 22.0098 12.1126 22.0095 11.9971C22.0091 11.8816 21.982 11.7678 21.9304 11.6645C21.8788 11.5611 21.8041 11.4711 21.7119 11.4014L19.2803 8.9698C19.2104 8.8978 19.1268 8.84057 19.0343 8.80149C18.9419 8.7624 18.8426 8.74226 18.7422 8.74226ZM5.23538 8.74323C5.0406 8.74891 4.85568 8.83016 4.71976 8.9698L2.28421 11.4053C2.19256 11.4756 2.11838 11.5661 2.06745 11.6698C2.01653 11.7735 1.99023 11.8875 1.9906 12.003C1.99098 12.1185 2.01803 12.2323 2.06963 12.3357C2.12124 12.439 2.19601 12.529 2.28812 12.5987L4.71976 15.0303C4.78887 15.1023 4.87164 15.1598 4.96324 15.1994C5.05484 15.239 5.15341 15.2599 5.25319 15.2609C5.35297 15.2619 5.45195 15.243 5.54433 15.2053C5.63671 15.1676 5.72064 15.1118 5.7912 15.0412C5.86176 14.9707 5.91753 14.8867 5.95524 14.7944C5.99296 14.702 6.01187 14.603 6.01085 14.5032C6.00984 14.4034 5.98892 14.3049 5.94934 14.2133C5.90975 14.1217 5.85228 14.0389 5.78031 13.9698L4.56058 12.7501H9.25003C9.34942 12.7515 9.44809 12.7331 9.54031 12.6961C9.63254 12.659 9.71648 12.604 9.78726 12.5342C9.85804 12.4644 9.91424 12.3813 9.9526 12.2896C9.99096 12.1979 10.0107 12.0995 10.0107 12.0001C10.0107 11.9007 9.99096 11.8023 9.9526 11.7106C9.91424 11.6189 9.85804 11.5357 9.78726 11.466C9.71648 11.3962 9.63254 11.3411 9.54031 11.3041C9.44809 11.267 9.34942 11.2487 9.25003 11.2501H4.56058L5.78031 10.0303C5.88851 9.92497 5.96237 9.78938 5.99224 9.64132C6.02211 9.49327 6.00658 9.33965 5.9477 9.20057C5.88882 9.06148 5.78932 8.94341 5.66222 8.86181C5.53513 8.78022 5.38636 8.73888 5.23538 8.74323ZM11.9883 13.9893C11.7896 13.9924 11.6002 14.0743 11.4618 14.2169C11.3233 14.3596 11.2472 14.5513 11.25 14.7501V19.4395L10.0303 18.2198C9.9612 18.1478 9.87842 18.0904 9.78682 18.0508C9.69523 18.0112 9.59665 17.9903 9.49687 17.9893C9.3971 17.9882 9.29812 18.0071 9.20573 18.0449C9.11335 18.0826 9.02942 18.1383 8.95887 18.2089C8.88831 18.2795 8.83254 18.3634 8.79482 18.4558C8.7571 18.5482 8.7382 18.6471 8.73921 18.7469C8.74023 18.8467 8.76114 18.9453 8.80073 19.0369C8.84031 19.1285 8.89778 19.2112 8.96976 19.2803L11.4053 21.7159C11.4756 21.8075 11.5661 21.8817 11.6698 21.9326C11.7734 21.9836 11.8875 22.0099 12.003 22.0095C12.1185 22.0091 12.2323 21.9821 12.3356 21.9305C12.439 21.8789 12.529 21.8041 12.5987 21.712L15.0303 19.2803C15.1023 19.2112 15.1597 19.1285 15.1993 19.0369C15.2389 18.9453 15.2598 18.8467 15.2609 18.7469C15.2619 18.6471 15.243 18.5482 15.2052 18.4558C15.1675 18.3634 15.1118 18.2795 15.0412 18.2089C14.9706 18.1383 14.8867 18.0826 14.7943 18.0449C14.7019 18.0071 14.603 17.9882 14.5032 17.9893C14.4034 17.9903 14.3048 18.0112 14.2132 18.0508C14.1216 18.0904 14.0389 18.1478 13.9698 18.2198L12.75 19.4395V14.7501C12.7515 14.6497 12.7327 14.55 12.695 14.457C12.6572 14.364 12.6011 14.2795 12.5301 14.2086C12.459 14.1376 12.3745 14.0817 12.2814 14.044C12.1884 14.0064 12.0887 13.9878 11.9883 13.9893Z" fill="#0006" />
</svg>
