<svg width="16" height="16" viewBox="0 0 16 16" fill="none" xmlns="http://www.w3.org/2000/svg">
<path d="M8 5.03906C4.33288 5.03906 1.32317 7.84731 1 11.4302H15C14.6768 7.84731 11.6671 5.03906 8 5.03906ZM10.6772 8.82821C10.6772 8.5062 10.9383 8.24515 11.2603 8.24515C11.5822 8.24515 11.8433 8.5062 11.8433 8.82821C11.8433 9.15022 11.5822 9.41127 11.2603 9.41127C10.9383 9.41127 10.6772 9.15022 10.6772 8.82821ZM4.73975 9.41127C4.41775 9.41127 4.15671 9.15022 4.15671 8.82821C4.15671 8.5062 4.41775 8.24515 4.73975 8.24515C5.06175 8.24515 5.32279 8.5062 5.32279 8.82821C5.32279 9.15022 5.06175 9.41127 4.73975 9.41127Z" fill="#30DC80"/>
<path d="M10.9298 6.56001C10.889 6.56001 10.8479 6.5498 10.8102 6.52792C10.6956 6.46171 10.6565 6.31529 10.7224 6.20066L12.2382 3.57326C12.3044 3.45834 12.4509 3.41896 12.5655 3.48546C12.6801 3.55167 12.7192 3.69809 12.6533 3.81272L11.1375 6.44013C11.0932 6.51713 11.0127 6.56001 10.9298 6.56001Z" fill="#30DC80"/>
<path d="M5.07368 6.56001C4.99085 6.56001 4.91035 6.51684 4.86601 6.44013L3.35051 3.81272C3.2843 3.69809 3.32368 3.55167 3.43801 3.48546C3.55235 3.41896 3.69905 3.45834 3.76526 3.57326L5.28105 6.20066C5.34726 6.31558 5.30789 6.462 5.19326 6.52792C5.15564 6.5498 5.11451 6.56001 5.07368 6.56001Z" fill="#30DC80"/>
</svg>
