<svg width="16" height="16" viewBox="0 0 16 16" fill="none" xmlns="http://www.w3.org/2000/svg">
<path d="M10.8333 14.6668C10.2407 14.6668 9.833 14.4745 9.47333 14.3048C9.12667 14.1415 8.827 14.0002 8.33333 14.0002C7.83967 14.0002 7.54 14.1415 7.19333 14.3048C6.83367 14.4745 6.426 14.6668 5.83333 14.6668C4.39133 14.6668 2 11.3572 2 7.83349C2 5.49683 3.61067 3.66683 5.66667 3.66683C6.34233 3.66683 6.753 3.86049 7.11533 4.03116C7.45933 4.19349 7.75667 4.33349 8.33333 4.33349C8.91 4.33349 9.20733 4.19349 9.55133 4.03116C9.91367 3.86049 10.3243 3.66683 11 3.66683C11.888 3.66683 12.6777 3.99416 13.3473 4.64049C13.46 4.74916 13.5153 4.90483 13.4963 5.06049C13.4773 5.21616 13.3867 5.35383 13.2513 5.43249C12.4793 5.88149 12 6.83316 12 7.91683C12 9.13716 12.668 10.1865 13.662 10.5272C13.7923 10.5718 13.8983 10.6682 13.955 10.7935C14.012 10.9185 14.015 11.0618 13.9627 11.1895C13.1537 13.1718 11.808 14.6668 10.8333 14.6668ZM8.5 3.33349C8.38067 3.33349 8.264 3.29083 8.172 3.21083C8.051 3.10549 7.98733 2.94816 8.002 2.78783C8.006 2.74683 8.103 1.77283 8.86633 0.993826C9.58433 0.260493 10.2833 0.0424926 10.3603 0.0198259C10.5233 -0.0275074 10.6993 0.0111593 10.8273 0.122493C10.9557 0.233493 11.0187 0.402159 10.995 0.570493C10.9837 0.650826 10.8653 1.38249 10.251 2.20349C9.59333 3.08216 8.654 3.31083 8.61433 3.32016C8.57633 3.32916 8.538 3.33349 8.5 3.33349Z" fill="black"/>
</svg>
