<svg xmlns="http://www.w3.org/2000/svg"  viewBox="0 0 48 48" width="64px" height="64px" baseProfile="basic"><linearGradient id="6Mu_ZtT4S5QHxML8FbOS5a" x1="35.454" x2="5.348" y1="-1396.235" y2="-1478.951" gradientTransform="matrix(1 0 0 -1 0 -1398)" gradientUnits="userSpaceOnUse"><stop offset="0" stop-color="#faf3df"/><stop offset="1" stop-color="#84b8aa"/></linearGradient><path fill="url(#6Mu_ZtT4S5QHxML8FbOS5a)" d="M42,21.35V37c0,3.31-2.69,6-6,6H6V21.35c0.49-0.08,0.98-0.25,1.43-0.53L24,10.69l16.57,10.13	C41.02,21.1,41.51,21.27,42,21.35z"/><linearGradient id="6Mu_ZtT4S5QHxML8FbOS5b" x1="6.267" x2="32.232" y1="-1383.28" y2="-1454.616" gradientTransform="matrix(1 0 0 -1 0 -1398)" gradientUnits="userSpaceOnUse"><stop offset="0" stop-color="#faf3df"/><stop offset="1" stop-color="#255b70"/></linearGradient><path fill="url(#6Mu_ZtT4S5QHxML8FbOS5b)" d="M30,43H18V28c0-1.657,1.343-3,3-3h9V43z"/><linearGradient id="6Mu_ZtT4S5QHxML8FbOS5c" x1="26.3" x2="39.305" y1="-1378.1" y2="-1413.831" gradientTransform="matrix(1 0 0 -1 0 -1398)" gradientUnits="userSpaceOnUse"><stop offset="0" stop-color="#ffe2a6"/><stop offset="1" stop-color="#903a51"/></linearGradient><path fill="url(#6Mu_ZtT4S5QHxML8FbOS5c)" d="M39,4v9.17L33,9.5V6c0-1.1,0.9-2,2-2H39z"/><linearGradient id="6Mu_ZtT4S5QHxML8FbOS5d" x1="30.287" x2="21.732" y1="-1380.373" y2="-1428.89" gradientTransform="matrix(1 0 0 -1 0 -1398)" gradientUnits="userSpaceOnUse"><stop offset="0" stop-color="#ffe2a6"/><stop offset="1" stop-color="#903a51"/></linearGradient><path fill="url(#6Mu_ZtT4S5QHxML8FbOS5d)" d="M24,4L1.037,18.029l0.893,1.46c1.152,1.884,3.613,2.477,5.498,1.326L24,10.69l16.572,10.125	c1.884,1.151,4.345,0.558,5.498-1.326l0.893-1.46L24,4z"/></svg>