<svg xmlns="http://www.w3.org/2000/svg"  viewBox="0 0 24 24" width="64px" height="64px" baseProfile="basic"><path fill="#306263" d="M20.329,9.153l-7-6.222c-0.758-0.674-1.9-0.674-2.657,0l-7,6.222C3.244,9.533,3,10.077,3,10.648V20	c0,0.552,0.448,1,1,1h2c0.552,0,1-0.448,1-1v-4c0-0.552,0.448-1,1-1l2,0c0.552,0,1,0.448,1,1v4c0,0.552,0.448,1,1,1h8	c0.552,0,1-0.448,1-1v-9.352C21,10.077,20.756,9.533,20.329,9.153z M18,16c0,0.552-0.448,1-1,1h-2c-0.552,0-1-0.448-1-1v-2	c0-0.552,0.448-1,1-1h2c0.552,0,1,0.448,1,1V16z"/></svg>