<svg xmlns="http://www.w3.org/2000/svg"  viewBox="0 0 24 24" width="64px" height="64px"><path d="M 12 1.8789062 L 2.1191406 7.6914062 L 1.4726562 8.0722656 L 2.234375 9.3652344 L 2.8808594 8.984375 L 3 8.9140625 L 3 21 L 21 21 L 21 8.9140625 L 21.119141 8.984375 L 21.765625 9.3652344 L 22.527344 8.0722656 L 21.880859 7.6914062 L 12 1.8789062 z M 12 3.6210938 L 19.5 8.03125 L 19.5 19.5 L 16 19.5 L 16 11 L 8 11 L 8 19.5 L 4.5 19.5 L 4.5 8.03125 L 12 3.6210938 z M 9.5 12.5 L 14.5 12.5 L 14.5 19.5 L 9.5 19.5 L 9.5 12.5 z"/></svg>