<svg width="18" height="18" viewBox="0 0 18 18" fill="none" xmlns="http://www.w3.org/2000/svg">
<mask id="path-1-inside-1_10616_181691" fill="white">
<path d="M0 6.4C0 4.15979 0 3.03969 0.435974 2.18404C0.819467 1.43139 1.43139 0.819467 2.18404 0.435974C3.03969 0 4.15979 0 6.4 0H11.6C13.8402 0 14.9603 0 15.816 0.435974C16.5686 0.819467 17.1805 1.43139 17.564 2.18404C18 3.03969 18 4.15979 18 6.4V11.6C18 13.8402 18 14.9603 17.564 15.816C17.1805 16.5686 16.5686 17.1805 15.816 17.564C14.9603 18 13.8402 18 11.6 18H6.4C4.15979 18 3.03969 18 2.18404 17.564C1.43139 17.1805 0.819467 16.5686 0.435974 15.816C0 14.9603 0 13.8402 0 11.6V6.4Z"/>
</mask>
<path d="M0 6.4C0 4.15979 0 3.03969 0.435974 2.18404C0.819467 1.43139 1.43139 0.819467 2.18404 0.435974C3.03969 0 4.15979 0 6.4 0H11.6C13.8402 0 14.9603 0 15.816 0.435974C16.5686 0.819467 17.1805 1.43139 17.564 2.18404C18 3.03969 18 4.15979 18 6.4V11.6C18 13.8402 18 14.9603 17.564 15.816C17.1805 16.5686 16.5686 17.1805 15.816 17.564C14.9603 18 13.8402 18 11.6 18H6.4C4.15979 18 3.03969 18 2.18404 17.564C1.43139 17.1805 0.819467 16.5686 0.435974 15.816C0 14.9603 0 13.8402 0 11.6V6.4Z" fill="#F7F7F7"/>
<path d="M-1 4C-1 1.23858 1.23858 -1 4 -1H14C16.7614 -1 19 1.23858 19 4H17C17 2.34315 15.6569 1 14 1H4C2.34315 1 1 2.34315 1 4H-1ZM19 15C19 17.7614 16.7614 20 14 20H4C1.23858 20 -1 17.7614 -1 15L1 14C1 15.1046 2.34315 16 4 16H14C15.6569 16 17 15.1046 17 14L19 15ZM4 20C1.23858 20 -1 17.7614 -1 15V4C-1 1.23858 1.23858 -1 4 -1V1C2.34315 1 1 2.34315 1 4V14C1 15.1046 2.34315 16 4 16V20ZM14 -1C16.7614 -1 19 1.23858 19 4V15C19 17.7614 16.7614 20 14 20V16C15.6569 16 17 15.1046 17 14V4C17 2.34315 15.6569 1 14 1V-1Z" fill="black" fill-opacity="0.26" mask="url(#path-1-inside-1_10616_181691)"/>
<path d="M10.6697 6.72656C10.6366 6.41643 10.4969 6.17495 10.2507 6.00213C10.0069 5.82931 9.68963 5.7429 9.29901 5.7429C9.02438 5.7429 8.78883 5.78433 8.59233 5.86719C8.39583 5.95005 8.2455 6.0625 8.14134 6.20455C8.03717 6.34659 7.9839 6.50876 7.98153 6.69105C7.98153 6.84257 8.01586 6.97396 8.08452 7.08523C8.15554 7.1965 8.25142 7.29119 8.37216 7.36932C8.4929 7.44508 8.62666 7.509 8.77344 7.56108C8.92022 7.61316 9.06818 7.65696 9.21733 7.69247L9.89915 7.86293C10.1738 7.92685 10.4377 8.01326 10.6911 8.12216C10.9467 8.23106 11.1752 8.36837 11.3764 8.53409C11.58 8.69981 11.741 8.89986 11.8594 9.13423C11.9777 9.36861 12.0369 9.64323 12.0369 9.9581C12.0369 10.3842 11.928 10.7595 11.7102 11.0838C11.4924 11.4058 11.1776 11.6579 10.7656 11.8402C10.3561 12.0201 9.86009 12.1101 9.2777 12.1101C8.71188 12.1101 8.22064 12.0225 7.80398 11.8473C7.38968 11.6721 7.06534 11.4164 6.83097 11.0803C6.59896 10.7441 6.47348 10.3345 6.45455 9.85156H7.75071C7.76965 10.1049 7.84777 10.3156 7.98509 10.4837C8.1224 10.6518 8.30114 10.7772 8.52131 10.8601C8.74384 10.9429 8.99242 10.9844 9.26705 10.9844C9.5535 10.9844 9.80445 10.9418 10.0199 10.8565C10.2377 10.7689 10.4081 10.6482 10.5312 10.4943C10.6544 10.3381 10.7171 10.1558 10.7195 9.94744C10.7171 9.75805 10.6615 9.6018 10.5526 9.47869C10.4437 9.35322 10.291 9.24905 10.0945 9.16619C9.90033 9.08097 9.67306 9.00521 9.41264 8.93892L8.58523 8.72585C7.98627 8.57197 7.51278 8.33878 7.16477 8.02628C6.81913 7.71141 6.64631 7.29356 6.64631 6.77273C6.64631 6.34422 6.76231 5.96899 6.99432 5.64702C7.22869 5.32505 7.54711 5.07528 7.94957 4.89773C8.35204 4.7178 8.80777 4.62784 9.31676 4.62784C9.83286 4.62784 10.285 4.7178 10.6733 4.89773C11.0639 5.07528 11.3705 5.32268 11.593 5.63991C11.8156 5.95478 11.9304 6.317 11.9375 6.72656H10.6697Z" fill="black" fill-opacity="0.55"/>
</svg>
