<svg width="24" height="24" viewBox="0 0 24 24" fill="none" xmlns="http://www.w3.org/2000/svg">
<g clip-path="url(#clip0_14464_462)">
<path d="M8.12792 1.50214C6.75742 1.55814 5.99992 2.54464 5.99992 2.54464C5.99992 2.54464 5.24241 1.55814 3.87192 1.50214C2.95292 1.46464 2.11042 1.92214 1.55542 2.65564C-0.375585 5.20764 3.28042 8.19314 4.14042 8.99464C4.65492 9.47414 5.28992 10.0436 5.66892 10.3811C5.85842 10.5501 6.14092 10.5501 6.33042 10.3811C6.70942 10.0436 7.34442 9.47414 7.85892 8.99464C8.71892 8.19314 12.3754 5.20764 10.4439 2.65564C9.88942 1.92214 9.04692 1.46464 8.12792 1.50214Z" fill="#E12D39"/>
<path d="M16.5 1.5C15.9475 1.5 15.5 1.9475 15.5 2.5V7.58789C15.3395 7.5304 15.1704 7.50068 15 7.5C14.6022 7.5 14.2206 7.65804 13.9393 7.93934C13.658 8.22064 13.5 8.60218 13.5 9C13.5 9.39782 13.658 9.77936 13.9393 10.0607C14.2206 10.342 14.6022 10.5 15 10.5C15.3978 10.5 15.7794 10.342 16.0607 10.0607C16.342 9.77936 16.5 9.39782 16.5 9V5C16.5 4.724 16.724 4.5 17 4.5H20.5C20.776 4.5 21 4.724 21 5V7.58789C20.8395 7.5304 20.6704 7.50068 20.5 7.5C20.1022 7.5 19.7206 7.65804 19.4393 7.93934C19.158 8.22064 19 8.60218 19 9C19 9.39782 19.158 9.77936 19.4393 10.0607C19.7206 10.342 20.1022 10.5 20.5 10.5C20.8978 10.5 21.2794 10.342 21.5607 10.0607C21.842 9.77936 22 9.39782 22 9V2.5C22 1.9475 21.5525 1.5 21 1.5H16.5Z" fill="#5FE95C"/>
<path d="M4.71973 13.5C4.28973 13.5 3.90846 13.7756 3.77246 14.1836L3.61426 14.6582C3.54626 14.8622 3.35515 15 3.13965 15H2C1.4475 15 1 15.4475 1 16V21.5C1 22.0525 1.4475 22.5 2 22.5H10C10.5525 22.5 11 22.0525 11 21.5V16C11 15.4475 10.5525 15 10 15H8.86035C8.64535 15 8.45374 14.8622 8.38574 14.6582L8.22754 14.1836C8.09154 13.7756 7.71027 13.5 7.28027 13.5H4.71973ZM6 16.5C7.103 16.5 8 17.397 8 18.5C8 19.603 7.103 20.5 6 20.5C4.897 20.5 4 19.603 4 18.5C4 17.397 4.897 16.5 6 16.5ZM6 17.5C5.73478 17.5 5.48043 17.6054 5.29289 17.7929C5.10536 17.9804 5 18.2348 5 18.5C5 18.7652 5.10536 19.0196 5.29289 19.2071C5.48043 19.3946 5.73478 19.5 6 19.5C6.26522 19.5 6.51957 19.3946 6.70711 19.2071C6.89464 19.0196 7 18.7652 7 18.5C7 18.2348 6.89464 17.9804 6.70711 17.7929C6.51957 17.6054 6.26522 17.5 6 17.5Z" fill="#138EFF"/>
<path d="M18.25 12.5C18.199 12.5 18.1491 12.5156 18.1072 12.5448C18.0653 12.5739 18.0334 12.6152 18.0156 12.6631L15.0771 18.2344C15.027 18.3139 15.0002 18.406 15 18.5C15 18.6326 15.0527 18.7598 15.1464 18.8536C15.2402 18.9473 15.3674 19 15.5 19H18V23.25C18 23.3163 18.0263 23.3799 18.0732 23.4268C18.1201 23.4737 18.1837 23.5 18.25 23.5C18.296 23.5001 18.3411 23.4874 18.3804 23.4635C18.4197 23.4395 18.4516 23.4052 18.4727 23.3643L21.4326 17.751L21.4316 17.75C21.476 17.6741 21.4996 17.5879 21.5 17.5C21.5 17.3674 21.4473 17.2402 21.3536 17.1464C21.2598 17.0527 21.1326 17 21 17H18.5V12.75C18.5 12.6837 18.4737 12.6201 18.4268 12.5732C18.3799 12.5263 18.3163 12.5 18.25 12.5Z" fill="#FFC107"/>
</g>
<defs>
<clipPath id="clip0_14464_462">
<rect width="24" height="24" rx="4" fill="white"/>
</clipPath>
</defs>
</svg>
