<svg width="40" height="40" viewBox="0 0 40 40" fill="none" xmlns="http://www.w3.org/2000/svg">
<path d="M20.002 2.90625L3.50195 13.2188V17.8984L4.26758 17.4199L4.50195 17.2715V35.4961H35.502V17.2734L36.502 17.8984V13.2188L20.002 2.90625ZM20.002 4.08594L35.502 13.7734V16.0957L20.002 6.40625L4.50195 16.0957V13.7734L20.002 4.08594ZM20.002 7.58594L34.502 16.6484V30.9961C34.2266 30.9961 34.002 31.2207 34.002 31.4961C34.002 31.7715 34.2266 31.9961 34.502 31.9961V34.4961H24.502V31.9961C24.7773 31.9961 25.002 31.7715 25.002 31.4961C25.002 31.2207 24.7773 30.9961 24.502 30.9961V21.9961H15.502V30.9961C15.2266 30.9961 15.002 31.2207 15.002 31.4961C15.002 31.7715 15.2266 31.9961 15.502 31.9961V34.4961H5.50195V31.9961C5.77734 31.9961 6.00195 31.7715 6.00195 31.4961C6.00195 31.2207 5.77734 30.9961 5.50195 30.9961V16.6465L20.002 7.58594ZM15.502 12.4961V18.4961H24.502V12.4961H15.502ZM16.502 13.4961H19.502V17.4961H16.502V13.4961ZM20.502 13.4961H23.502V17.4961H20.502V13.4961ZM16.502 22.9961H23.502V34.4961H16.502V22.9961ZM21.752 28.4961C21.3379 28.4961 21.002 28.832 21.002 29.2461C21.002 29.6602 21.3379 29.9961 21.752 29.9961C22.166 29.9961 22.502 29.6602 22.502 29.2461C22.502 28.832 22.166 28.4961 21.752 28.4961ZM7.50195 30.9961C7.22656 30.9961 7.00195 31.2207 7.00195 31.4961C7.00195 31.7715 7.22656 31.9961 7.50195 31.9961C7.77734 31.9961 8.00195 31.7715 8.00195 31.4961C8.00195 31.2207 7.77734 30.9961 7.50195 30.9961ZM9.50195 30.9961C9.22656 30.9961 9.00195 31.2207 9.00195 31.4961C9.00195 31.7715 9.22656 31.9961 9.50195 31.9961C9.77734 31.9961 10.002 31.7715 10.002 31.4961C10.002 31.2207 9.77734 30.9961 9.50195 30.9961ZM11.502 30.9961C11.2266 30.9961 11.002 31.2207 11.002 31.4961C11.002 31.7715 11.2266 31.9961 11.502 31.9961C11.7773 31.9961 12.002 31.7715 12.002 31.4961C12.002 31.2207 11.7773 30.9961 11.502 30.9961ZM13.502 30.9961C13.2266 30.9961 13.002 31.2207 13.002 31.4961C13.002 31.7715 13.2266 31.9961 13.502 31.9961C13.7773 31.9961 14.002 31.7715 14.002 31.4961C14.002 31.2207 13.7773 30.9961 13.502 30.9961ZM26.502 30.9961C26.2266 30.9961 26.002 31.2207 26.002 31.4961C26.002 31.7715 26.2266 31.9961 26.502 31.9961C26.7773 31.9961 27.002 31.7715 27.002 31.4961C27.002 31.2207 26.7773 30.9961 26.502 30.9961ZM28.502 30.9961C28.2266 30.9961 28.002 31.2207 28.002 31.4961C28.002 31.7715 28.2266 31.9961 28.502 31.9961C28.7773 31.9961 29.002 31.7715 29.002 31.4961C29.002 31.2207 28.7773 30.9961 28.502 30.9961ZM30.502 30.9961C30.2266 30.9961 30.002 31.2207 30.002 31.4961C30.002 31.7715 30.2266 31.9961 30.502 31.9961C30.7773 31.9961 31.002 31.7715 31.002 31.4961C31.002 31.2207 30.7773 30.9961 30.502 30.9961ZM32.502 30.9961C32.2266 30.9961 32.002 31.2207 32.002 31.4961C32.002 31.7715 32.2266 31.9961 32.502 31.9961C32.7773 31.9961 33.002 31.7715 33.002 31.4961C33.002 31.2207 32.7773 30.9961 32.502 30.9961Z" fill="black"/>
</svg>
