<svg width="16" height="16" viewBox="0 0 16 16" fill="none" xmlns="http://www.w3.org/2000/svg">
<g clip-path="url(#clip0_14537_2051)">
<path opacity="0.4" fill-rule="evenodd" clip-rule="evenodd" d="M9.81014 12.0845C11.0165 11.7821 11.9258 11.1421 12.5166 10.1597C12.5485 10.1067 12.57 10.0477 12.58 9.986C12.5899 9.92433 12.5881 9.86122 12.5745 9.80029C12.561 9.73936 12.536 9.68179 12.5011 9.63088C12.4661 9.57996 12.4219 9.5367 12.3708 9.50356C12.3198 9.47041 12.263 9.44804 12.2036 9.43771C12.1443 9.42739 12.0835 9.42931 12.0249 9.44337C11.9662 9.45743 11.9108 9.48336 11.8618 9.51967C11.8128 9.55597 11.7712 9.60196 11.7393 9.65498C11.2983 10.3878 10.6186 10.8836 9.68226 11.1369C9.60581 10.4072 9.56298 9.67415 9.55393 8.94022C9.5502 8.69037 9.45211 8.45204 9.2808 8.27664C9.10949 8.10125 8.87869 8.00282 8.63818 8.0026H7.31543C7.5996 5.5726 8.69868 2.84308 9.2858 1.33594H13.9613C14.3259 1.33594 14.6757 1.48645 14.9335 1.75436C15.1914 2.02227 15.3363 2.38563 15.3363 2.76451V13.2407C15.3363 13.6196 15.1914 13.9829 14.9335 14.2509C14.6757 14.5188 14.3259 14.6693 13.9613 14.6693H10.5283C10.213 13.9426 9.97331 13.0807 9.81014 12.0845ZM11.2113 4.19308C11.0897 4.19308 10.9731 4.24325 10.8872 4.33255C10.8012 4.42186 10.7529 4.54298 10.7529 4.66927V6.09784C10.7529 6.22414 10.8012 6.34526 10.8872 6.43456C10.9731 6.52386 11.0897 6.57403 11.2113 6.57403C11.3328 6.57403 11.4494 6.52386 11.5354 6.43456C11.6213 6.34526 11.6696 6.22414 11.6696 6.09784V4.66927C11.6696 4.54298 11.6213 4.42186 11.5354 4.33255C11.4494 4.24325 11.3328 4.19308 11.2113 4.19308Z" fill="#47A3F3"/>
<path fill-rule="evenodd" clip-rule="evenodd" d="M8.9052 12.2426C9.05324 13.1474 9.2627 13.9559 9.53311 14.6693H2.04395C1.67927 14.6693 1.32954 14.5188 1.07167 14.2509C0.813811 13.9829 0.668945 13.6196 0.668945 13.2407L0.668945 2.76451C0.668945 2.38563 0.813811 2.02227 1.07167 1.75436C1.32954 1.48645 1.67927 1.33594 2.04395 1.33594H8.29653C7.66403 2.96451 6.6777 5.55641 6.40499 7.88784C6.38936 8.0216 6.40123 8.15728 6.43981 8.28592C6.47839 8.41456 6.5428 8.53323 6.62879 8.63409C6.71478 8.73495 6.82038 8.8157 6.93864 8.87102C7.05689 8.92634 7.18509 8.95496 7.31478 8.95499H8.63707C8.6499 9.7907 8.6962 10.5717 8.77686 11.2993C8.51938 11.3244 8.26089 11.3366 8.00228 11.3359C6.16207 11.3359 4.93695 10.7702 4.26595 9.65498C4.23405 9.60196 4.1924 9.55597 4.1434 9.51967C4.0944 9.48336 4.03899 9.45743 3.98034 9.44337C3.92169 9.42931 3.86095 9.42739 3.80159 9.43771C3.74223 9.44804 3.6854 9.47041 3.63436 9.50356C3.58332 9.5367 3.53906 9.57996 3.50412 9.63088C3.46917 9.68179 3.44422 9.73936 3.43068 9.80029C3.41715 9.86122 3.4153 9.92433 3.42524 9.986C3.43518 10.0477 3.45671 10.1067 3.48861 10.1597C4.3457 11.584 5.87103 12.2883 8.00228 12.2883C8.3167 12.2883 8.61782 12.2731 8.9052 12.2426ZM4.79395 4.19308C4.67239 4.19308 4.55581 4.24325 4.46985 4.33255C4.3839 4.42186 4.33561 4.54298 4.33561 4.66927V6.09784C4.33561 6.22414 4.3839 6.34526 4.46985 6.43456C4.55581 6.52386 4.67239 6.57403 4.79395 6.57403C4.9155 6.57403 5.03208 6.52386 5.11804 6.43456C5.20399 6.34526 5.25228 6.22414 5.25228 6.09784V4.66927C5.25228 4.54298 5.20399 4.42186 5.11804 4.33255C5.03208 4.24325 4.9155 4.19308 4.79395 4.19308Z" fill="#47A3F3"/>
</g>
<defs>
<clipPath id="clip0_14537_2051">
<rect width="14.6667" height="13.3333" fill="white" transform="translate(0.666016 1.33594)"/>
</clipPath>
</defs>
</svg>
