<svg width="25" height="25" viewBox="0 0 25 25" fill="none" xmlns="http://www.w3.org/2000/svg">
<path d="M11.9817 0.531641C11.8768 0.53526 11.7757 0.571818 11.6927 0.636133L0.192668 9.60977C0.0880315 9.69135 0.0200906 9.81116 0.0037911 9.94284C-0.0125084 10.0745 0.0241687 10.2073 0.105754 10.3119C0.187339 10.4165 0.307149 10.4845 0.438828 10.5008C0.570506 10.5171 0.703266 10.4804 0.807902 10.3988L1.50028 9.85879V23.0043C1.5003 23.1369 1.55298 23.2641 1.64675 23.3578C1.74051 23.4516 1.86768 23.5043 2.00028 23.5043H8.9163C8.9703 23.5132 9.02539 23.5132 9.07939 23.5043H14.9163C14.9703 23.5132 15.0254 23.5132 15.0794 23.5043H22.0003C22.1329 23.5043 22.2601 23.4516 22.3538 23.3578C22.4476 23.2641 22.5003 23.1369 22.5003 23.0043V9.85879L23.1927 10.3988C23.2445 10.4392 23.3037 10.469 23.3671 10.4865C23.4304 10.504 23.4965 10.5089 23.5618 10.5008C23.627 10.4927 23.6899 10.4719 23.7471 10.4395C23.8042 10.4071 23.8544 10.3637 23.8948 10.3119C23.9352 10.2601 23.965 10.2009 23.9825 10.1375C24 10.0742 24.0049 10.008 23.9968 9.94284C23.9887 9.87764 23.9679 9.81467 23.9355 9.75752C23.9031 9.70037 23.8597 9.65016 23.8079 9.60977L20.0003 6.63906V3.0043H17.0003V4.29727L12.3079 0.636133C12.2149 0.563993 12.0994 0.52699 11.9817 0.531641ZM12.0003 1.66543L21.5003 9.07852V22.5043H15.5003V13.0043H8.50029V22.5043H2.50028V9.07852L12.0003 1.66543ZM18.0003 4.0043H19.0003V5.85879L18.0003 5.07754V4.0043ZM9.50029 14.0043H14.5003V22.5043H9.50029V14.0043Z" fill="black"/>
</svg>
