<svg width="16" height="16" viewBox="0 0 16 16" fill="none" xmlns="http://www.w3.org/2000/svg">
<mask id="mask0_14537_1839" style="mask-type:alpha" maskUnits="userSpaceOnUse" x="1" y="8" width="14" height="7">
<path d="M14.5 8C14.5 9.72391 13.8152 11.3772 12.5962 12.5962C11.3772 13.8152 9.72391 14.5 8 14.5C6.27609 14.5 4.62279 13.8152 3.40381 12.5962C2.18482 11.3772 1.5 9.72391 1.5 8L8 8H14.5Z" fill="#1A1A1A"/>
</mask>
<g mask="url(#mask0_14537_1839)">
<rect x="1" y="8" width="14" height="3.25" fill="#E03A3E"/>
</g>
<mask id="mask1_14537_1839" style="mask-type:alpha" maskUnits="userSpaceOnUse" x="1" y="4" width="14" height="4">
<rect x="1" y="4.75" width="14" height="3.25" fill="#D9D9D9"/>
</mask>
<g mask="url(#mask1_14537_1839)">
<path d="M1.5 8C1.5 6.27609 2.18482 4.62279 3.4038 3.40381C4.62279 2.18482 6.27609 1.5 8 1.5C9.72391 1.5 11.3772 2.18482 12.5962 3.40381C13.8152 4.62279 14.5 6.27609 14.5 8L8 8L1.5 8Z" fill="#F5821F"/>
</g>
<mask id="mask2_14537_1839" style="mask-type:alpha" maskUnits="userSpaceOnUse" x="1" y="11" width="14" height="4">
<rect x="1" y="11.25" width="14" height="3.25" fill="#D9D9D9"/>
</mask>
<g mask="url(#mask2_14537_1839)">
<path d="M14.5 8C14.5 9.72391 13.8152 11.3772 12.5962 12.5962C11.3772 13.8152 9.72391 14.5 8 14.5C6.27609 14.5 4.62279 13.8152 3.4038 12.5962C2.18482 11.3772 1.5 9.72391 1.5 8L8 8L14.5 8Z" fill="#009DDC"/>
</g>
<mask id="mask3_14537_1839" style="mask-type:alpha" maskUnits="userSpaceOnUse" x="1" y="1" width="14" height="4">
<rect x="1" y="1.5" width="14" height="3.25" fill="#D9D9D9"/>
</mask>
<g mask="url(#mask3_14537_1839)">
<path d="M1.5 8C1.5 6.27609 2.18482 4.62279 3.4038 3.40381C4.62279 2.18482 6.27609 1.5 8 1.5C9.72391 1.5 11.3772 2.18482 12.5962 3.40381C13.8152 4.62279 14.5 6.27609 14.5 8L8 8L1.5 8Z" fill="#61BB46"/>
</g>
</svg>
