<svg xmlns="http://www.w3.org/2000/svg" width="16" height="16" viewBox="0 0 16 16" fill="none">
<path d="M7.99219 1.65973C7.85969 1.6618 7.73344 1.71637 7.64115 1.81147C7.54887 1.90656 7.4981 2.03439 7.5 2.16689V7.50022H2.16667C2.10041 7.49929 2.03463 7.51153 1.97315 7.53623C1.91166 7.56094 1.8557 7.59762 1.80852 7.64414C1.76133 7.69067 1.72386 7.7461 1.69829 7.80723C1.67272 7.86836 1.65955 7.93396 1.65955 8.00022C1.65955 8.06649 1.67272 8.13209 1.69829 8.19322C1.72386 8.25435 1.76133 8.30978 1.80852 8.3563C1.8557 8.40283 1.91166 8.43951 1.97315 8.46421C2.03463 8.48892 2.10041 8.50116 2.16667 8.50022H7.5V13.8336C7.49906 13.8998 7.5113 13.9656 7.53601 14.0271C7.56072 14.0886 7.5974 14.1445 7.64392 14.1917C7.69044 14.2389 7.74588 14.2764 7.80701 14.3019C7.86814 14.3275 7.93374 14.3407 8 14.3407C8.06626 14.3407 8.13187 14.3275 8.19299 14.3019C8.25412 14.2764 8.30956 14.2389 8.35608 14.1917C8.4026 14.1445 8.43928 14.0886 8.46399 14.0271C8.4887 13.9656 8.50094 13.8998 8.5 13.8336V8.50022H13.8333C13.8996 8.50116 13.9654 8.48892 14.0269 8.46421C14.0883 8.43951 14.1443 8.40283 14.1915 8.3563C14.2387 8.30978 14.2761 8.25435 14.3017 8.19322C14.3273 8.13209 14.3405 8.06649 14.3405 8.00022C14.3405 7.93396 14.3273 7.86836 14.3017 7.80723C14.2761 7.7461 14.2387 7.69067 14.1915 7.64414C14.1443 7.59762 14.0883 7.56094 14.0269 7.53623C13.9654 7.51153 13.8996 7.49929 13.8333 7.50022H8.5V2.16689C8.50096 2.09997 8.48848 2.03353 8.46329 1.97153C8.4381 1.90952 8.40072 1.8532 8.35336 1.8059C8.30601 1.75861 8.24964 1.7213 8.1876 1.69619C8.12556 1.67108 8.05911 1.65868 7.99219 1.65973Z" fill="#1A1A1A"/>
</svg>